HIERARCHY
ROOT Hips
{
	OFFSET	0.00	0.00	0.00
	CHANNELS 6 Xposition Yposition Zposition Zrotation Xrotation Yrotation
	JOINT Spine
	{
		OFFSET	 0.00	0.01	 0.00
		CHANNELS 3 Zrotation Xrotation Yrotation
		JOINT Spine1
		{
			OFFSET	 0.00	 2.45913012437421	 0.00
			CHANNELS 3 Zrotation Xrotation Yrotation
            JOINT Neck
            {
                OFFSET	 0.00	 2.48462964506057	 0.00
                CHANNELS 3 Zrotation Xrotation Yrotation
                JOINT Head
                {
                    OFFSET	 0.00	 0.927524780924562	 0.00
                    CHANNELS 3 Zrotation Xrotation Yrotation
                    End Site 
                    {
                        OFFSET	 0.00	 1.14999962169752	 0.00
                    }
                }
            }
			JOINT LeftShoulder
			{
				OFFSET	 0.00	 2.48462964506057	 0.00
				CHANNELS 3 Zrotation Xrotation Yrotation
				JOINT LeftUpArm
				{
					OFFSET	 0.00	 1.24881979654096	 0.00
					CHANNELS 3 Zrotation Xrotation Yrotation
					JOINT LeftForeArm
					{
						OFFSET	 0.00	2.59758046908119	 0.00
						CHANNELS 3 Zrotation Xrotation Yrotation
						JOINT LeftHand
						{
							OFFSET	 0.00	2.45542024364365	 0.00
							CHANNELS 3 Zrotation Xrotation Yrotation
							JOINT LeftHandThumb 
							{
								OFFSET	 0.00	0.00	 0.00
								CHANNELS 3 Zrotation Xrotation Yrotation
								End Site
								{
									OFFSET	 0.00	0.00	1.00000003353624
								}
							}
							JOINT L_Wrist_End 
							{
								OFFSET	 0.00	0.99999967115358	 0.00
								CHANNELS 3 Zrotation Xrotation Yrotation
								End Site 
								{
									OFFSET	 0.00	 0.00	 0.00
								}
							}
						}
					}
				}
			}
			JOINT RightShoulder
			{
				OFFSET	 0.00	 2.48462964506057	 0.00
				CHANNELS 3 Zrotation Xrotation Yrotation
				JOINT RightUpArm
				{
					OFFSET	 0.00	 1.24881979654096	 0.00
					CHANNELS 3 Zrotation Xrotation Yrotation
					JOINT RightForeArm
					{
						OFFSET	 0.00	2.59758046908119	 0.00
						CHANNELS 3 Zrotation Xrotation Yrotation
						JOINT RightHand
						{
							OFFSET	 0.00	2.45542024364365	 0.00
							CHANNELS 3 Zrotation Xrotation Yrotation
							JOINT RightHandThumb 
							{
								OFFSET	 0.00	0.00	 0.00
								CHANNELS 3 Zrotation Xrotation Yrotation
								End Site
								{
									OFFSET	 0.00	0.00	1.00000003353624
								}
							}
							JOINT R_Wrist_End 
							{
								OFFSET	 0.00	0.99999967115358	 0.00
								CHANNELS 3 Zrotation Xrotation Yrotation
								End Site 
								{
									OFFSET	 0.00	 0.00	 0.00
								}
							}
						}
					}
				}
			}
		}
	}
	JOINT LeftUpLeg
	{
		OFFSET	 1.2719394002717	 0.00	 0.00
		CHANNELS 3 Zrotation Xrotation Yrotation
		JOINT LeftLowLeg
		{
			OFFSET	 0.00	-4.3429100912261	 0.00
			CHANNELS 3 Zrotation Xrotation Yrotation
			JOINT LeftFoot
			{
				OFFSET	 0.00	-4.48767017425826	 0.00
				CHANNELS 3 Zrotation Xrotation Yrotation
				JOINT LeftToeBase
                {
                    OFFSET	 0.00	0.00	 1.51507020887566
                    CHANNELS 3 Zrotation Xrotation Yrotation
                    End Site 
                    {
                        OFFSET	 0.00	0.00	 0.75000010571191
                    }
                }
			}
		}
	}
	JOINT RightUpLeg
	{
		OFFSET	 -1.2719393604653	 0.00	 0.00
		CHANNELS 3 Zrotation Xrotation Yrotation
		JOINT RightLowLeg
		{
			OFFSET	 0.00	-4.3429100912261	 0.00
			CHANNELS 3 Zrotation Xrotation Yrotation
			JOINT RightFoot
			{
				OFFSET	 0.00	-4.48767017425826	 0.00
				CHANNELS 3 Zrotation Xrotation Yrotation
				JOINT RightToeBase
                {
                    OFFSET	 0.00	0.00	 1.51507020887566
                    CHANNELS 3 Zrotation Xrotation Yrotation
                    End Site 
                    {
                        OFFSET	 0.00	0.00	 0.749999965609858
                    }
                }   
			}
		}
	}
}
MOTION 
Frames:	13 
Frame Time: 0.02 
 -4.313970031738282 -1.3452000427246094 9.245440063476563 86.6123 86.5592 -87.4793 1.41326 -17.2242 -0.979931 -6.94479 17.9187 3.73834 15.4382 50.2218 348.607 -2.92665 -83.5768 -726.108 -115.9651 -2.50817 366.808 -45.7025 7.88124 26.5167 0.0 19.2959 0.0 8.6879 -15.675 -5.96487 0.0 0.0 0.0 0.0 0.0 0.0 120.6015 -4.337 -363.876 47.8798 3.47193 -375.781 0.0 20.0212 0.0 1.61532 -8.72877 7.43403 0.0 0.0 0.0 0.0 0.0 0.0 -4.86552 0.0815222 -18.4351 0.0 18.3342 0.0 -17.9225 -8.0835 5.11434 0.0 -17.253891 0.0 4.99586 -1.24243 25.1179 0.0 22.027 0.0 79.333 -16.3919 24.8441 0.0 23.824501 0.0 
  -4.3164498901367185 -1.3462699890136718 9.24572998046875 87.2167 86.5632 -87.8266 1.43138 -17.2081 -1.01284 -6.94833 17.8773 3.6703 15.484 50.168 348.522 -3.04226 -83.5636 -726.225 -115.9497 -2.51627 366.874 -45.7923 7.89499 26.3097 0.0 19.2184 0.0 8.71211 -15.7405 -6.4546 0.0 0.0 0.0 0.0 0.0 0.0 120.543 -4.34721 -364.002 47.8877 3.57772 -375.745 0.0 20.0361 0.0 1.62852 -8.77131 7.36156 0.0 0.0 0.0 0.0 0.0 0.0 -4.83773 0.00371392 -18.5747 0.0 18.3876 0.0 -17.9836 -8.048401 4.9808 0.0 -17.24384 0.0 4.97905 -1.23669 24.8148 0.0 21.9731 0.0 79.2638 -16.3224 24.8177 0.0 23.7891 0.0 
  -4.319930114746094 -1.349250030517578 9.246810302734374 88.7486 86.5341 -89.3059 1.43274 -17.3154 -0.957128 -6.90526 17.9092 3.76424 15.5449 50.1087 348.389 -3.40228 -83.5563 -726.564 -115.9758 -2.46999 366.858 -45.8617 7.89679 26.1834 0.0 19.1424 0.0 8.77818 -15.8804 -6.35403 0.0 0.0 0.0 0.0 0.0 0.0 120.4892 -4.35919 -363.881 47.8474 3.51263 -375.855 0.0 20.0126 0.0 1.80299 -8.8544 7.35014 0.0 0.0 0.0 0.0 0.0 0.0 -4.80884 -0.0533216 -18.4224 0.0 18.3211 0.0 -17.8919 -7.9251995 4.84987 0.0 -17.32155 0.0 4.93672 -1.32137 24.6288 0.0 21.9815 0.0 79.1801 -16.1649 24.8178 0.0 23.7145 0.0 
  -4.323330078125 -1.351699981689453 9.24781982421875 88.7823 86.55 -89.1856 1.47231 -17.3136 -0.932219 -6.90957 17.9004 3.7547 15.573 50.1086 348.345 -3.49672 -83.5778 -726.689 -115.9605 -2.46821 366.897 -45.9095 7.96283 26.0342 0.0 19.1109 0.0 8.92662 -15.9185 -6.14246 0.0 0.0 0.0 0.0 0.0 0.0 120.4795 -4.34725 -363.898 47.8285 3.523 -375.838 0.0 19.9653 0.0 1.68295 -8.75482 7.14902 0.0 0.0 0.0 0.0 0.0 0.0 -4.73298 -0.0682831 -18.2946 0.0 18.3251 0.0 -17.8558 -7.8218994 4.61279 0.0 -17.37387 0.0 4.93706 -1.26314 24.4378 0.0 21.8931 0.0 79.1724 -16.0904 24.7905 0.0 23.726002 0.0 
  -4.325889892578125 -1.3523300170898438 9.248250122070312 88.8523 86.5295 -89.1592 1.47328 -17.2737 -0.923084 -6.86431 17.852 3.76909 15.4956 50.1151 348.389 -3.95467 -83.5999 -727.143 -116.007095 -2.50363 366.941 -45.8968 8.07495 25.9537 0.0 19.1216 0.0 9.03004 -15.8612 -5.61473 0.0 0.0 0.0 0.0 0.0 0.0 120.4715 -4.30577 -363.995 47.7016 3.51706 -375.822 0.0 20.0996 0.0 1.8323 -8.87085 7.17025 0.0 0.0 0.0 0.0 0.0 0.0 -4.70345 -0.0979784 -18.1606 0.0 18.3524 0.0 -17.8512 -7.732401 4.38636 0.0 -17.42896 0.0 4.90693 -1.27033 24.2365 0.0 21.9042 0.0 79.154 -15.9604 24.8262 0.0 23.675598 0.0 
  -4.3301998901367185 -1.3568800354003907 9.24958984375 88.8103 86.4911 -88.9635 1.45487 -17.3254 -0.895864 -6.88377 17.8855 3.82112 15.6183 50.057 348.221 -3.95967 -83.5532 -727.107 -115.9402 -2.48006 366.938 -45.9214 8.13506 26.0504 0.0 19.1895 0.0 9.15547 -15.7328 -4.98436 0.0 0.0 0.0 0.0 0.0 0.0 120.4648 -4.43298 -364.109 47.7083 3.71219 -375.774 0.0 20.0102 0.0 1.80151 -8.82582 7.01273 0.0 0.0 0.0 0.0 0.0 0.0 -4.6327 -0.0896811 -17.8329 0.0 18.322 0.0 -17.8259 -7.514799 3.93884 0.0 -17.50844 0.0 4.85562 -1.21156 23.9541 0.0 21.844 0.0 79.0161 -15.8545 24.7876 0.0 23.631401 0.0 
  -4.334599914550782 -1.360050048828125 9.251480102539062 88.4887 86.4707 -88.5072 1.38965 -17.3695 -0.972897 -6.81308 17.9408 3.82893 15.4523 50.0676 348.385 -4.30032 -83.5486 -727.455 -115.9539 -2.51761 366.803 -45.9077 8.0861 26.1492 0.0 19.3044 0.0 9.35942 -15.5687 -4.7678 0.0 0.0 0.0 0.0 0.0 0.0 120.4396 -4.31797 -364.122 47.6829 3.68049 -375.736 0.0 19.9502 0.0 1.85736 -8.81927 7.28915 0.0 0.0 0.0 0.0 0.0 0.0 -4.51615 -0.0680975 -17.3354 0.0 18.2623 0.0 -17.6901 -7.2332 3.39941 0.0 -17.63262 0.0 4.8435 -1.15936 23.7549 0.0 21.8199 0.0 78.9749 -15.791 24.7469 0.0 23.6137 0.0 
  -4.340679931640625 -1.3661000061035156 9.254249877929688 88.2427 86.3904 -88.1221 1.35813 -17.1952 -0.960916 -6.8999 17.4876 3.72642 15.4609 50.5012 348.454 -4.78276 -83.7015 -727.909 -115.9553 -2.67774 366.948 -45.7433 7.98743 26.1297 0.0 19.5239 0.0 9.59532 -15.2871 -3.75116 0.0 0.0 0.0 0.0 0.0 0.0 120.6201 -4.35718 -364.443 47.5448 3.71732 -375.663 0.0 19.9602 0.0 1.92506 -8.85504 7.59021 0.0 0.0 0.0 0.0 0.0 0.0 -4.39384 0.0648245 -16.718 0.0 17.9755 0.0 -17.6408 -6.8178997 2.71298 0.0 -17.72388 0.0 4.78052 -1.07551 23.5552 0.0 21.7759 0.0 78.6987 -15.8139 24.5751 0.0 23.6423 0.0 
  -4.347179870605469 -1.3700599670410156 9.257239990234375 88.6923 86.263 -88.5529 1.28007 -17.2867 -0.929446 -6.98042 17.4505 3.79783 15.341 50.6152 348.588 -5.1288 -83.6281 -728.213 -115.8195 -2.7707 367.038 -45.7642 8.04716 26.1214 0.0 19.7246 0.0 9.91684 -15.1276 -3.6043 0.0 0.0 0.0 0.0 0.0 0.0 120.6051 -4.39165 -364.708 47.6502 3.90053 -375.401 0.0 20.0022 0.0 1.89097 -8.91556 7.63655 0.0 0.0 0.0 0.0 0.0 0.0 -4.27516 0.18943 -15.8411 0.0 17.5907 0.0 -17.5062 -6.3024006 1.89262 0.0 -17.86062 0.0 4.68862 -1.10596 23.4286 0.0 21.8289 0.0 78.7721 -15.7339 24.5969 0.0 23.721802 0.0 
  -4.353819885253906 -1.3708500671386719 9.261229858398437 86.7608 86.1291 -86.6119 1.18157 -17.1082 -0.937192 -7.01573 17.2762 3.81629 14.9793 50.8621 349.015 -5.8956 -83.6684 -728.912 -115.81 -2.91191 367.026 -45.6941 7.96298 25.9791 0.0 20.0001 0.0 10.1018 -14.9729 -3.65413 0.0 0.0 0.0 0.0 0.0 0.0 120.6824 -4.28536 -364.564 47.6421 3.61725 -375.437 0.0 20.1338 0.0 1.78878 -8.84715 7.32199 0.0 0.0 0.0 0.0 0.0 0.0 -4.16108 0.463575 -15.0764 0.0 17.199 0.0 -17.446 -5.7607 1.09914 0.0 -18.06986 0.0 4.59601 -1.0013 23.2527 0.0 21.877 0.0 78.7298 -15.6404 24.5573 0.0 23.7146 0.0 
  -4.3597900390625 -1.3753799438476562 9.266099853515625 88.0583 86.0566 -87.5611 1.08251 -17.3524 -1.07776 -7.03894 17.3677 3.75678 14.5484 50.9624 349.411 -7.19896 -83.5832 -730.108 -115.76 -3.01797 367.146 -45.6441 8.01686 25.7946 0.0 20.2858 0.0 10.3819 -14.7152 -3.52692 0.0 0.0 0.0 0.0 0.0 0.0 120.5936 -4.36967 -364.745 47.7783 3.80184 -375.521 0.0 20.2297 0.0 1.75229 -8.84807 7.41249 0.0 0.0 0.0 0.0 0.0 0.0 -4.03017 0.475921 -14.7767 0.0 16.9145 0.0 -17.5584 -5.2898006 0.351371 0.0 -18.30864 0.0 4.48487 -1.01305 22.5187 0.0 21.7567 0.0 78.6869 -15.369101 24.5444 0.0 23.772202 0.0 
  -4.364440002441406 -1.3763999938964844 9.270130004882812 88.2958 85.9659 -87.4882 1.12894 -17.2901 -1.04747 -7.24779 17.0771 3.60285 14.1096 51.3286 349.883 -8.74802 -83.6678 -731.533 -115.7094 -3.27058 367.4 -45.4338 8.10334 25.7957 0.0 20.6988 0.0 10.5997 -14.5194 -3.3806 0.0 0.0 0.0 0.0 0.0 0.0 120.6523 -4.39436 -364.628 47.896 3.57352 -375.658 0.0 20.2702 0.0 1.76467 -8.87557 7.46731 0.0 0.0 0.0 0.0 0.0 0.0 -3.97271 0.488736 -14.5923 0.0 16.7455 0.0 -17.6817 -4.8981 -0.225359 0.0 -18.44689 0.0 4.35771 -1.01965 21.7625 0.0 21.721 0.0 78.5295 -15.0956 24.5226 0.0 23.820301 0.0 
  -4.366170043945313 -1.3763999938964844 9.273599853515625 90.2309 85.9186 -88.8017 1.25768 -17.46 -1.03808 -7.51688 17.0271 3.39383 13.4862 51.5573 350.5 -10.6463 -83.6955 -733.217 -115.660995 -3.39528 367.437 -45.2064 8.07543 26.111 0.0 21.1372 0.0 10.9654 -14.2149 -3.11519 0.0 0.0 0.0 0.0 0.0 0.0 120.6201 -4.39504 -364.446 48.1497 3.26052 -375.621 0.0 20.3784 0.0 1.68285 -8.79219 7.29297 0.0 0.0 0.0 0.0 0.0 0.0 -3.94275 0.240028 -14.784 0.0 16.8145 0.0 -18.1042 -4.6378994 -0.854313 0.0 -18.39446 0.0 4.23002 -1.08286 20.6333 0.0 21.57 0.0 78.5302 -14.7959 24.5844 0.0 24.0033 0.0 
